<svg width="86" height="37" viewBox="0 0 86 37" fill="none" xmlns="http://www.w3.org/2000/svg">
<path d="M0.0668603 33.992C-0.114765 35.0815 0.621239 36.112 1.71077 36.2936C2.80031 36.4753 3.83079 35.7392 4.01242 34.6497L0.0668603 33.992ZM79.2201 22.2888C80.2977 22.5314 81.3679 21.8545 81.6104 20.7769L85.5632 3.21623C85.8058 2.13863 85.1288 1.06842 84.0512 0.825856C82.9736 0.583295 81.9034 1.26023 81.6608 2.33784L78.1473 17.9473L62.5378 14.4337C61.4602 14.1912 60.39 14.8681 60.1474 15.9457C59.9049 17.0233 60.5818 18.0935 61.6594 18.3361L79.2201 22.2888ZM4.01242 34.6497C4.9148 29.2366 8.53616 23.5221 14.055 18.4972C19.5483 13.4956 26.7647 9.32619 34.5377 6.95279C50.0657 2.21151 67.3956 4.69077 77.969 21.4068L81.3495 19.2685C69.5279 0.579142 50.0511 -1.96634 33.3696 3.12715C25.0379 5.67115 17.2989 10.134 11.3621 15.5395C5.45092 20.9215 1.16762 27.3888 0.0668603 33.992L4.01242 34.6497Z" fill="#FFFAFA"/>
</svg>
