<svg width="516" height="144" viewBox="0 0 516 144" fill="none" xmlns="http://www.w3.org/2000/svg">
<path d="M12.412 91.883L46.7395 72.6094L54.4524 84.4737L50.7211 86.5686C44.661 81.7686 42.1219 79.6188 37.8043 82.0429L36.1519 82.9707L51.3254 109.996C52.9714 112.927 54.4733 112.855 58.0811 111.04L59.9666 114.398L41.0971 124.993L39.2117 121.634C42.6932 119.469 43.59 118.195 41.9439 115.263L26.7705 88.238L25.0648 89.1957C20.7472 91.6199 21.2607 94.907 22.2037 102.58L18.5258 104.645L12.412 91.883Z" fill="#066968"/>
<path d="M95.1224 97.7906L75.9207 106.365L74.3505 102.848C78.0156 101.011 78.6345 99.9978 77.2637 96.9277L66.3469 72.4791C64.9761 69.409 63.8089 69.1938 59.9942 70.6963L58.424 67.1797L77.6257 58.6058L79.1959 62.1224C75.5308 63.9598 74.9119 64.9726 76.2827 68.0426L87.1994 92.4912C88.5703 95.5613 89.7375 95.7765 93.5522 94.274L95.1224 97.7906Z" fill="#066968"/>
<path d="M106.437 56.2839L115.148 81.4731C116.227 84.5929 117.758 84.9044 121.108 83.7456L122.899 83.1262C126.828 81.7676 127.211 79.6948 128.962 70.357L133.122 68.9185L135.619 83.0611L102.631 94.4693L101.372 90.8296C105.183 89.3176 105.888 88.3625 104.789 85.1849L96.0378 59.8801C94.9589 56.7604 93.8147 56.4445 89.884 57.6098L88.6053 53.9123L108.479 47.0394L109.758 50.7369C106.063 52.2089 105.358 53.1641 106.437 56.2839Z" fill="#066968"/>
<path d="M183.091 62.3859L175.869 42.2814L171.326 74.3108L167.136 75.1784L149.518 47.6753L151.065 69.0172C151.104 69.5085 151.206 70.299 151.255 70.5385C151.85 73.4118 153.495 73.8203 157.735 73.1921L158.516 76.9633L142.713 80.2356L141.932 76.4643C145.307 75.5782 146.355 74.612 146.204 71.7716L144.497 44.5323C143.84 41.3597 142.552 40.5651 138.504 41.216L137.723 37.4448L153.706 34.1353C154.111 35.4873 154.524 36.2758 155.372 37.6608L169.078 59.2319L172.552 34.1035C172.781 32.4954 172.967 31.583 172.801 30.1814L188.425 26.9463L189.206 30.7175C185.292 31.7152 184.485 32.9435 185.142 36.1162L194.332 61.8062C195.359 64.6526 196.727 64.931 200.117 64.4165L200.898 68.1877L179.408 72.6375L178.627 68.8663C182.827 67.7468 184.115 66.731 183.52 63.8577C183.471 63.6182 183.25 62.8524 183.091 62.3859Z" fill="#066968"/>
<path d="M236.325 50.6857L232.667 50.9536C231.79 47.3402 230.603 46.2012 227.921 46.3976L222.251 46.8127L223.121 58.7014C223.362 61.9936 225.066 62.6656 228.542 62.4112L230.98 62.2327C235.492 61.9023 237.099 59.5781 240.55 53.1347L244.574 52.8401L243.586 65.2939L207.798 67.9141L207.517 64.0732C211.588 63.5912 212.514 62.8491 212.269 59.4959L210.314 32.7922C210.068 29.439 209.044 28.8398 204.946 28.9559L204.664 25.115L240.147 22.517L240.982 33.918L236.836 34.2215C234.519 29.365 232.817 27.0379 227.939 27.395L220.867 27.9128L221.947 42.6669L227.617 42.2518C230.3 42.0554 231.308 40.7557 231.65 37.053L235.308 36.7852L236.325 50.6857Z" fill="#066968"/>
<path d="M271.007 30.7451L270.111 57.3829C270 60.6821 271.317 61.5216 274.86 61.6409L276.754 61.7046C280.909 61.8444 282.009 60.0465 286.991 51.9569L291.39 52.1049L288.653 66.2031L253.767 65.029L253.896 61.18C257.996 61.1344 258.996 60.4953 259.109 57.135L260.01 30.375C260.121 27.0758 259.166 26.3708 255.079 26.0498L255.21 22.1396L276.227 22.847L276.096 26.7571C272.118 26.8067 271.118 27.4459 271.007 30.7451Z" fill="#066968"/>
<path d="M321.382 30.9922L319.266 30.6757L314.762 60.7837C314.229 64.3507 315.459 65.2147 318.664 65.6941L319.329 65.7936C326.584 66.8788 331.518 61.9922 333.263 50.3238C334.783 40.1669 330.995 32.4302 321.382 30.9922ZM303.523 28.0734L304.093 24.2645L323.5 27.1677C339.34 29.5372 346.81 38.69 344.928 51.2653C342.848 65.1706 332.749 71.9425 319.086 69.8985L297.744 66.7059L298.314 62.8971C302.391 63.3217 303.458 62.8013 303.956 59.4762L307.917 32.9956C308.414 29.6704 307.547 28.8607 303.523 28.0734Z" fill="#066968"/>
<path d="M396.384 47.9507L394.35 47.2867L384.902 76.2267C383.783 79.6554 384.853 80.712 387.933 81.7174L388.572 81.9261C395.546 84.2026 401.224 80.2044 404.885 68.9887C408.072 59.2258 405.624 50.9671 396.384 47.9507ZM379.259 42.1029L380.454 38.4418L399.108 44.5315C414.333 49.5019 420.177 59.7693 416.231 71.8567C411.868 85.2226 400.783 90.2209 387.65 85.9335L367.136 79.2367L368.331 75.5756C372.282 76.6723 373.42 76.3366 374.464 73.1405L382.773 47.6872C383.816 44.491 383.095 43.5483 379.259 42.1029Z" fill="#066968"/>
<path d="M436.58 105.085L417.319 96.6454L418.865 93.1179C422.69 94.5938 423.855 94.3704 425.205 91.2909L435.951 66.7669C437.301 63.6874 436.675 62.6789 432.997 60.8671L434.543 57.3397L453.803 65.7797L452.258 69.3071C448.433 67.8313 447.267 68.0546 445.918 71.1341L435.171 95.6582C433.822 98.7377 434.448 99.7461 438.126 101.558L436.58 105.085Z" fill="#066968"/>
<path d="M454.339 90.3516C461.209 78.0145 474.518 75.3502 485.146 81.2689C490.433 84.2134 494.14 88.2369 495.608 92.1335L490.82 100.732L486.334 98.2337C487.955 91.9297 487.42 87.3632 482.933 84.8648C476.257 81.147 469.602 86.8165 465.348 94.4538C460.144 103.8 459.114 112.183 466.484 116.287C468.3 117.298 469.38 117.62 471.102 117.669L474.998 110.673C476.575 107.843 476.024 106.696 472.665 104.686L474.568 101.268L491.872 110.904L489.969 114.322C486.385 112.466 485.28 112.691 483.704 115.521L479.302 123.425C474.569 124.008 468.669 122.542 463.061 119.419C450.67 112.519 448.36 101.086 454.339 90.3516Z" fill="#066968"/>
</svg>
