<?xml version="1.0" encoding="UTF-8"?>
<svg xmlns="http://www.w3.org/2000/svg" id="Lag_1" data-name="Lag 1" viewBox="0 0 519.35 194.36">
  <defs>
    <style>.cls-1{fill:#d65452;}.cls-2{fill:#3b6c86;}.cls-3{fill:#396b85;}</style>
  </defs>
  <path class="cls-1" d="M131.06,439a9.37,9.37,0,0,0-9.36,9.37V459.6a3.83,3.83,0,1,1-7.65,0V444.1a10.29,10.29,0,1,0-20.58,0V457a3.83,3.83,0,0,1-7.65,0v-18.1a10.29,10.29,0,0,0-20.58,0v20.67a3.83,3.83,0,0,1-7.65,0V390.22a10,10,0,1,0-20,0v114.1a14.18,14.18,0,0,0,14.16,14.16h74.43a14.17,14.17,0,0,0,14.15-14.16v-56A9.27,9.27,0,0,0,131.06,439Z" transform="translate(-37.62 -324.13)"></path>
  <path class="cls-1" d="M65.28,390.22v34a17.9,17.9,0,0,1,26.34,6.7,18.08,18.08,0,0,1,12.16-4.77,17.71,17.71,0,0,1,15.87,9.61,17.1,17.1,0,0,1,11.41-4.42,16.92,16.92,0,0,1,9.37,2.84V353H37.67v22.76a17.6,17.6,0,0,1,27.61,14.49Z" transform="translate(-37.62 -324.13)"></path>
  <path class="cls-1" d="M126.27,324.13H51.85a14.18,14.18,0,0,0-14.18,14.16v7.49H140.41v-7.49A14.14,14.14,0,0,0,126.27,324.13Zm-27.7,14.7h-19a3.52,3.52,0,1,1,0-7h19a3.52,3.52,0,1,1,0,7Z" transform="translate(-37.62 -324.13)"></path>
  <path class="cls-2" d="M180.33,412.8a1.26,1.26,0,0,1-.33-.93V355.28a1.23,1.23,0,0,1,.33-.92,1.26,1.26,0,0,1,.93-.33h5.65a1.66,1.66,0,0,1,1.52.83l15.8,22.65c.18.33.33.33.51,0l15.89-22.65a1.62,1.62,0,0,1,1.52-.83h5.65a1.26,1.26,0,0,1,.93.33,1.23,1.23,0,0,1,.33.92v56.59a1.15,1.15,0,0,1-1.26,1.26h-5.58a1.15,1.15,0,0,1-1.26-1.26V369c0-.22-.06-.36-.17-.38s-.22.05-.33.22c0,0-12.71,18.18-13.1,18.76a1.69,1.69,0,0,1-1.52.83h-2.71a1.73,1.73,0,0,1-1.51-.83c-.44-.58-13-18.76-13-18.76-.11-.17-.22-.24-.33-.22s-.17.16-.17.38v42.91a1.15,1.15,0,0,1-1.26,1.26h-5.58A1.18,1.18,0,0,1,180.33,412.8Z" transform="translate(-37.62 -324.13)"></path>
  <path class="cls-2" d="M244.69,429.7a2.08,2.08,0,0,1-.18-.92v-4.31c0-.84.18-1.28.51-1.28h.5a14.76,14.76,0,0,0,5.28-.76,6.88,6.88,0,0,0,3.21-2.84,24.88,24.88,0,0,0,2.48-6.2.63.63,0,0,0,0-.51l-13.94-41.31a1.11,1.11,0,0,1-.08-.5c0-.62.37-.93,1.1-.93h5.91a1.36,1.36,0,0,1,1.43,1l9.54,30.41c.07.22.13.33.26.33s.2-.11.27-.33l9.21-30.32a1.29,1.29,0,0,1,.51-.81,1.55,1.55,0,0,1,.92-.29h5.91a1,1,0,0,1,.93.38,1.3,1.3,0,0,1,.09,1.05l-15.13,44.52a37.38,37.38,0,0,1-3.89,8.71,10.35,10.35,0,0,1-5.08,4,25.5,25.5,0,0,1-8.8,1.19h-.59C245,430,244.8,429.92,244.69,429.7Z" transform="translate(-37.62 -324.13)"></path>
  <path class="cls-2" d="M325.62,391.78A34.27,34.27,0,0,1,324.34,402a17.2,17.2,0,0,1-5.87,8.71,16.51,16.51,0,0,1-10.35,3.12,13.62,13.62,0,0,1-5.46-1.1,12.2,12.2,0,0,1-4.35-3.21.37.37,0,0,0-.33-.13c-.11,0-.17.13-.17.28V428a1.23,1.23,0,0,1-.33.92,1.26,1.26,0,0,1-.93.33H291a1.26,1.26,0,0,1-.93-.33,1.23,1.23,0,0,1-.33-.92V371.42a1.15,1.15,0,0,1,1.26-1.26h5.58a1.15,1.15,0,0,1,1.26,1.26v2.2a.33.33,0,0,0,.17.33c.11.06.22,0,.33-.09a12.69,12.69,0,0,1,9.81-4.4,16.54,16.54,0,0,1,10.09,3,17,17,0,0,1,5.87,8.49A32.15,32.15,0,0,1,325.62,391.78Zm-8.12-.18c0-4.33-.7-7.83-2.11-10.46q-2.43-4.65-8.11-4.64a8,8,0,0,0-7.34,4.55c-1.34,2.42-2,6-2,10.64s.72,8.22,2.19,10.82a7.8,7.8,0,0,0,7.19,4.31,8.4,8.4,0,0,0,7.52-4.05C316.6,399.93,317.5,396.22,317.5,391.6Z" transform="translate(-37.62 -324.13)"></path>
  <path class="cls-2" d="M368.62,373.57c2.71,2.68,4.05,6.29,4.05,10.86v27.46a1.15,1.15,0,0,1-1.26,1.26h-5.58a1.23,1.23,0,0,1-.92-.33,1.26,1.26,0,0,1-.33-.93V386a9.64,9.64,0,0,0-2.44-6.84,8.52,8.52,0,0,0-6.51-2.62,9.13,9.13,0,0,0-6.14,2.16,8.64,8.64,0,0,0-2.92,5.78v27.37a1.15,1.15,0,0,1-1.25,1.26h-5.59a1.15,1.15,0,0,1-1.25-1.26V355.28a1.23,1.23,0,0,1,.33-.92,1.25,1.25,0,0,1,.92-.33h5.59a1.25,1.25,0,0,1,.92.33,1.23,1.23,0,0,1,.33.92v18.49a.31.31,0,0,0,.18.33c.11.07.19,0,.26-.09q3.56-4.49,10.64-4.48C362.25,369.55,365.92,370.89,368.62,373.57Z" transform="translate(-37.62 -324.13)"></path>
  <path class="cls-2" d="M393.58,410.64a16.6,16.6,0,0,1-6.47-8.84,32.58,32.58,0,0,1-1.52-10.31A31.52,31.52,0,0,1,387,381.36a16.62,16.62,0,0,1,6.51-8.75,19.14,19.14,0,0,1,11.06-3.17,17.94,17.94,0,0,1,10.6,3.17,17.32,17.32,0,0,1,6.46,8.66,30.55,30.55,0,0,1,1.52,10.13,32.5,32.5,0,0,1-1.52,10.4,16.8,16.8,0,0,1-6.42,8.84,18.33,18.33,0,0,1-10.73,3.17A18.83,18.83,0,0,1,393.58,410.64Zm16.86-5.74a10.38,10.38,0,0,0,3.63-5.36,29.4,29.4,0,0,0,.92-7.94,31.28,31.28,0,0,0-.84-7.85,10.31,10.31,0,0,0-3.62-5.36,9.92,9.92,0,0,0-6.18-1.89,9.76,9.76,0,0,0-6,1.89,10.27,10.27,0,0,0-3.63,5.36,27.07,27.07,0,0,0-.92,7.85,27.79,27.79,0,0,0,.92,7.94,9.91,9.91,0,0,0,3.58,5.36,10.06,10.06,0,0,0,6.2,1.89A9.36,9.36,0,0,0,410.44,404.9Z" transform="translate(-37.62 -324.13)"></path>
  <path class="cls-2" d="M466.52,373.57c2.71,2.68,4.05,6.29,4.05,10.86v27.46a1.15,1.15,0,0,1-1.25,1.26h-5.59a1.15,1.15,0,0,1-1.25-1.26V386a9.6,9.6,0,0,0-2.44-6.84,8.5,8.5,0,0,0-6.51-2.62,9.11,9.11,0,0,0-6.13,2.16,8.65,8.65,0,0,0-2.93,5.78v27.37a1.26,1.26,0,0,1-.33.93,1.23,1.23,0,0,1-.92.33h-5.58a1.15,1.15,0,0,1-1.26-1.26V371.42a1.15,1.15,0,0,1,1.26-1.26h5.58a1.23,1.23,0,0,1,.92.33,1.26,1.26,0,0,1,.33.93v2.37a.31.31,0,0,0,.18.33c.11.07.2,0,.26-.09q3.57-4.48,10.64-4.48T466.52,373.57Z" transform="translate(-37.62 -324.13)"></path>
  <path class="cls-2" d="M512.65,401.56c.29-.51.59-.77.92-.77a1.28,1.28,0,0,1,.77.26l3.48,2.12a1.26,1.26,0,0,1,.68,1.09l-.18.69a16.35,16.35,0,0,1-6.46,6.5,19.39,19.39,0,0,1-9.76,2.38A18.3,18.3,0,0,1,492,411.17a16.4,16.4,0,0,1-6.24-7.65,31.63,31.63,0,0,1-2.11-12.07,36.49,36.49,0,0,1,.92-9.39,16.11,16.11,0,0,1,6.09-9.21,18.09,18.09,0,0,1,11.06-3.39q8,0,12.25,4.18c2.81,2.79,4.64,6.84,5.49,12.11.29,2.09.49,4.62.6,7.61a1.13,1.13,0,0,1-1.28,1.27H492.05a.37.37,0,0,0-.42.42,19.71,19.71,0,0,0,.6,4.55,9.29,9.29,0,0,0,3.71,5.32,11.84,11.84,0,0,0,6.93,1.94C507.42,406.84,510.67,405.06,512.65,401.56Zm-17-23.3a8.85,8.85,0,0,0-3.16,4.9,20.16,20.16,0,0,0-.77,4.73c0,.28.13.41.42.41h19.17c.28,0,.42-.13.42-.41a24.77,24.77,0,0,0-.51-4.14,9.49,9.49,0,0,0-3.34-5.27,9.69,9.69,0,0,0-6.2-2A9.44,9.44,0,0,0,495.63,378.26Z" transform="translate(-37.62 -324.13)"></path>
  <path class="cls-2" d="M556.25,370.65a1.34,1.34,0,0,1,.68,1.6l-1.19,5.5c-.06.57-.33.84-.83.84a2.07,2.07,0,0,1-.68-.09,8.86,8.86,0,0,0-2.88-.42,5.94,5.94,0,0,0-1.28.09,9.46,9.46,0,0,0-6.55,2.75,9,9,0,0,0-2.57,6.7v24.25a1.15,1.15,0,0,1-1.26,1.26h-5.58a1.23,1.23,0,0,1-.92-.33,1.26,1.26,0,0,1-.33-.93V371.42a1.26,1.26,0,0,1,.33-.93,1.23,1.23,0,0,1,.92-.33h5.58a1.15,1.15,0,0,1,1.26,1.26v3.89c0,.22,0,.35.13.37s.17,0,.28-.22a11.78,11.78,0,0,1,10.32-5.74A10.88,10.88,0,0,1,556.25,370.65Z" transform="translate(-37.62 -324.13)"></path>
  <path class="cls-3" d="M200,490l-7.18-15.32a.2.2,0,0,0-.2-.16h-7.38a.18.18,0,0,0-.2.21v15.11a.45.45,0,0,1-.51.51h-3.9a.45.45,0,0,1-.51-.51V455a.46.46,0,0,1,.51-.52h13.78a11,11,0,0,1,5.41,1.29,9,9,0,0,1,3.61,3.58,10.83,10.83,0,0,1,1.28,5.33,9.79,9.79,0,0,1-1.87,6.07,9.16,9.16,0,0,1-5.2,3.35c-.14.07-.17.16-.1.26L205,489.74a.63.63,0,0,1,.05.26c0,.23-.14.35-.41.35h-4.05A.56.56,0,0,1,200,490Zm-15-31.05v11.48a.18.18,0,0,0,.2.2h8.56a5.94,5.94,0,0,0,4.35-1.61,5.71,5.71,0,0,0,1.64-4.28,5.64,5.64,0,0,0-6-6h-8.56A.18.18,0,0,0,185.05,459Z" transform="translate(-37.62 -324.13)"></path>
  <path class="cls-3" d="M233.15,478.78a.45.45,0,0,1-.51.51H216.3a.18.18,0,0,0-.21.2,8.72,8.72,0,0,0,.31,2.67,5.45,5.45,0,0,0,2.28,3.2,7.59,7.59,0,0,0,4.33,1.15,6.59,6.59,0,0,0,5.84-3.12c.17-.34.39-.4.66-.16l2.92,1.95a.5.5,0,0,1,.16.67,10,10,0,0,1-4.08,3.63,13,13,0,0,1-6,1.33,11.36,11.36,0,0,1-6.3-1.64,10,10,0,0,1-3.85-4.66,19.39,19.39,0,0,1-1.23-7.32,21.55,21.55,0,0,1,.57-5.69,9.73,9.73,0,0,1,3.69-5.58,10.92,10.92,0,0,1,6.71-2.05c3.45,0,6,.86,7.73,2.59s2.75,4.26,3.13,7.6A43.36,43.36,0,0,1,233.15,478.78Zm-14.65-9.56a5.44,5.44,0,0,0-1.95,2.95,12,12,0,0,0-.46,2.87.18.18,0,0,0,.21.2H228a.18.18,0,0,0,.2-.2,16,16,0,0,0-.3-2.51,6.17,6.17,0,0,0-9.43-3.31Z" transform="translate(-37.62 -324.13)"></path>
  <path class="cls-3" d="M255.26,465a8.45,8.45,0,0,1,3.58,3.07,8.17,8.17,0,0,1,1.26,4.49v17.31a.46.46,0,0,1-.52.51h-3.89a.45.45,0,0,1-.51-.51V488c0-.17-.09-.21-.26-.1a8.86,8.86,0,0,1-3.25,2.12,11.69,11.69,0,0,1-4.28.74,9.93,9.93,0,0,1-6.27-1.92,6.88,6.88,0,0,1-2.49-5.81,7.66,7.66,0,0,1,2.79-6.28q2.79-2.28,7.82-2.28H255c.14,0,.21-.06.21-.2v-1.38a4.62,4.62,0,0,0-1.31-3.51,5.52,5.52,0,0,0-4-1.26,6.52,6.52,0,0,0-3.51.85,3.46,3.46,0,0,0-1.66,2.28.55.55,0,0,1-.62.46l-4.15-.57c-.34-.06-.49-.2-.46-.41a7,7,0,0,1,3.23-4.94,12.27,12.27,0,0,1,7.07-1.92A12.76,12.76,0,0,1,255.26,465Zm-2.08,20.21a4.33,4.33,0,0,0,2-3.64v-3c0-.14-.07-.2-.21-.2h-4.81a8.73,8.73,0,0,0-4.82,1.17,3.73,3.73,0,0,0-1.79,3.28,3.29,3.29,0,0,0,1.36,2.87,6,6,0,0,0,3.56,1A7.83,7.83,0,0,0,253.18,485.18Z" transform="translate(-37.62 -324.13)"></path>
  <path class="cls-3" d="M271.72,488.79a10,10,0,0,1-3.79-5.35,20.62,20.62,0,0,1-.76-6.2,22.57,22.57,0,0,1,.76-6.2,9.76,9.76,0,0,1,3.82-5.22,11.28,11.28,0,0,1,6.63-1.95,11.62,11.62,0,0,1,6.71,1.95,8.83,8.83,0,0,1,3.74,4.91,6.62,6.62,0,0,1,.41,1.69.5.5,0,0,1-.46.52l-3.84.56h-.1c-.24,0-.41-.15-.51-.46l-.16-.82a5,5,0,0,0-2-2.92,6.2,6.2,0,0,0-3.84-1.18,6,6,0,0,0-3.74,1.18,5.38,5.38,0,0,0-2,3.12,20.61,20.61,0,0,0-.47,4.87,20.32,20.32,0,0,0,.47,4.82,5.66,5.66,0,0,0,2,3.22,5.82,5.82,0,0,0,3.71,1.18,6.35,6.35,0,0,0,3.87-1.18,5,5,0,0,0,2-3.07.11.11,0,0,0,0-.13.12.12,0,0,1,0-.13v-.2a.44.44,0,0,1,.57-.31l3.84.62c.27.06.41.2.41.41v.2a3.32,3.32,0,0,1-.26,1.13,8.64,8.64,0,0,1-3.74,5,11.89,11.89,0,0,1-6.71,1.89A11.16,11.16,0,0,1,271.72,488.79Z" transform="translate(-37.62 -324.13)"></path>
  <path class="cls-3" d="M314.35,466.35a8.9,8.9,0,0,1,2.45,6.59v16.9a.45.45,0,0,1-.51.51H312.4a.45.45,0,0,1-.51-.51V473.91a5.83,5.83,0,0,0-1.49-4.15,5.13,5.13,0,0,0-3.94-1.59,5.26,5.26,0,0,0-3.95,1.59,5.68,5.68,0,0,0-1.54,4.1v16a.45.45,0,0,1-.51.51h-3.89a.45.45,0,0,1-.51-.51V455a.46.46,0,0,1,.51-.52h3.89a.46.46,0,0,1,.51.52v11.63a.18.18,0,0,0,.08.15c.05,0,.1,0,.13-.05a7.76,7.76,0,0,1,6.51-2.82A9.08,9.08,0,0,1,314.35,466.35Z" transform="translate(-37.62 -324.13)"></path>
  <path class="cls-3" d="M325.1,489.43a3.28,3.28,0,0,1,2.36-5.63,3.28,3.28,0,1,1-2.36,5.63Z" transform="translate(-37.62 -324.13)"></path>
  <path class="cls-3" d="M356.5,489.28a11,11,0,0,1-4.45-4.33,12.75,12.75,0,0,1-1.59-6.43V466.33a12.65,12.65,0,0,1,1.59-6.41,11,11,0,0,1,4.45-4.3,15.06,15.06,0,0,1,13.27,0,11.13,11.13,0,0,1,4.46,4.3,12.65,12.65,0,0,1,1.59,6.41v12.19a12.75,12.75,0,0,1-1.59,6.43,11.07,11.07,0,0,1-4.46,4.33,15.15,15.15,0,0,1-13.27,0Zm12.25-4.87a7.69,7.69,0,0,0,2.15-5.68V466.28a7.89,7.89,0,0,0-2.15-5.77,7.6,7.6,0,0,0-5.64-2.17,7.5,7.5,0,0,0-5.61,2.17,7.91,7.91,0,0,0-2.12,5.77v12.45a7.71,7.71,0,0,0,2.12,5.68,7.52,7.52,0,0,0,5.61,2.15A7.62,7.62,0,0,0,368.75,484.41Z" transform="translate(-37.62 -324.13)"></path>
  <path class="cls-3" d="M399.89,464.28h3.84a.45.45,0,0,1,.52.51v25a.45.45,0,0,1-.52.51h-3.84a.45.45,0,0,1-.51-.51V488a.13.13,0,0,0-.08-.13c-.05,0-.11,0-.18.08q-2,2.81-6.3,2.81a10.94,10.94,0,0,1-4.63-1,7.81,7.81,0,0,1-4.69-7.48V464.79a.45.45,0,0,1,.51-.51h3.84a.45.45,0,0,1,.52.51v15.93a6,6,0,0,0,1.41,4.2,5.08,5.08,0,0,0,4,1.54,5.48,5.48,0,0,0,4.09-1.56,5.69,5.69,0,0,0,1.54-4.18V464.79A.45.45,0,0,1,399.89,464.28Z" transform="translate(-37.62 -324.13)"></path>
  <path class="cls-3" d="M424.94,468.33h-5.53c-.14,0-.2.06-.2.2v13.58a3.45,3.45,0,0,0,4,4h1.49a.45.45,0,0,1,.51.52v3.17a.45.45,0,0,1-.51.51c-1.1.07-1.88.11-2.36.11a10.09,10.09,0,0,1-5.87-1.41q-2-1.41-2-5.2V468.53a.18.18,0,0,0-.2-.2h-3.13a.45.45,0,0,1-.51-.52v-3a.45.45,0,0,1,.51-.51h3.13a.18.18,0,0,0,.2-.21v-6a.45.45,0,0,1,.51-.51h3.69a.46.46,0,0,1,.52.51v6c0,.14.06.21.2.21h5.53a.46.46,0,0,1,.52.51v3A.46.46,0,0,1,424.94,468.33Z" transform="translate(-37.62 -324.13)"></path>
  <path class="cls-3" d="M433.65,489.43a3.47,3.47,0,1,1,2.36.92A3.16,3.16,0,0,1,433.65,489.43Z" transform="translate(-37.62 -324.13)"></path>
  <path class="cls-3" d="M481.6,454.49h3.89a.46.46,0,0,1,.51.52v34.83a.45.45,0,0,1-.51.51h-3.74a.75.75,0,0,1-.61-.35l-16-26.18c0-.1-.08-.15-.15-.13s-.1.08-.1.18l0,26a.45.45,0,0,1-.51.51h-3.9a.45.45,0,0,1-.51-.51V455a.46.46,0,0,1,.51-.52h3.79a.75.75,0,0,1,.62.36l16,26.18c0,.1.09.15.15.13s.11-.08.11-.18l-.05-26A.46.46,0,0,1,481.6,454.49Z" transform="translate(-37.62 -324.13)"></path>
  <path class="cls-3" d="M499.07,488.84a10,10,0,0,1-3.95-5.35,19.84,19.84,0,0,1-.92-6.25,19,19,0,0,1,.87-6.15,10.11,10.11,0,0,1,3.94-5.3,11.65,11.65,0,0,1,6.72-1.92,10.9,10.9,0,0,1,6.42,1.92,10.46,10.46,0,0,1,3.92,5.25,18.33,18.33,0,0,1,.93,6.15,19.43,19.43,0,0,1-.93,6.3,10.16,10.16,0,0,1-3.89,5.35,11.11,11.11,0,0,1-6.51,1.92A11.42,11.42,0,0,1,499.07,488.84Zm10.19-3.48a6.31,6.31,0,0,0,2.2-3.25,17.44,17.44,0,0,0,.57-4.82,18.18,18.18,0,0,0-.52-4.76,6.28,6.28,0,0,0-2.2-3.26,6.1,6.1,0,0,0-3.74-1.15,6,6,0,0,0-3.64,1.15,6.4,6.4,0,0,0-2.2,3.26,16.52,16.52,0,0,0-.56,4.76,17.17,17.17,0,0,0,.56,4.82,6,6,0,0,0,2.18,3.25,6.15,6.15,0,0,0,3.76,1.15A5.79,5.79,0,0,0,509.26,485.36Z" transform="translate(-37.62 -324.13)"></path>
  <path class="cls-3" d="M528.68,489.94l-7.38-25.1,0-.15c0-.27.17-.41.51-.41h4a.53.53,0,0,1,.56.46l4.87,18.6c0,.06.07.1.12.1a.15.15,0,0,0,.13-.1l5-18.6a.53.53,0,0,1,.56-.46h3.54a.52.52,0,0,1,.56.46l5.07,18.54c0,.07.08.11.13.11a.16.16,0,0,0,.13-.11l5.07-18.54a.53.53,0,0,1,.57-.46l3.94.05a.46.46,0,0,1,.38.15.47.47,0,0,1,.08.41L549,489.94a.55.55,0,0,1-.56.41h-4a.55.55,0,0,1-.56-.41l-5-17.31a.14.14,0,0,0-.13-.1s-.09,0-.13.1l-4.76,17.26a.53.53,0,0,1-.56.46h-4A.55.55,0,0,1,528.68,489.94Z" transform="translate(-37.62 -324.13)"></path>
</svg>
