<svg width="48" height="48" viewBox="0 0 48 48" fill="none" xmlns="http://www.w3.org/2000/svg">
<rect width="48" height="48" fill="#FF1054"/>
<path d="M25.0736 14.808C29.2656 14.808 32.8816 18.232 32.8816 23.064C32.8816 27.896 29.2656 31.288 25.0736 31.288C23.3776 31.288 22.0976 30.872 20.9776 30.2V38.392H14.8016V15.256H20.9776V15.896C22.0976 15.224 23.3776 14.808 25.0736 14.808ZM23.6336 26.456C25.4576 26.456 26.9296 25.048 26.9296 23.064C26.9296 21.048 25.4576 19.672 23.6336 19.672C22.7696 19.672 21.8736 19.896 20.9776 20.696V25.4C21.8736 26.232 22.7696 26.456 23.6336 26.456Z" fill="#FFFAFA"/>
</svg>
