<svg width="740" height="176" viewBox="0 0 740 176" fill="none" xmlns="http://www.w3.org/2000/svg">
<path d="M37.3683 56.9722L54.0177 43.969C54.7967 43.3619 55.4393 42.746 55.7782 42.1653C56.6718 40.6342 56.3553 39.6001 53.2272 37.562L55.1685 34.2358L67.4171 41.3848L65.4758 44.711C63.8434 44.1122 62.739 43.8215 61.2735 44.8772L28.9476 68.9741L26.1495 67.3409L29.4904 26.3267C29.6888 24.5315 28.9454 23.7436 27.6212 22.6168L29.5625 19.2907L47.4603 29.7369L45.519 33.063C42.206 31.3417 41.0751 31.4603 40.1506 33.0441C39.8117 33.6249 39.5914 34.4873 39.446 35.4641L37.3683 56.9722Z" fill="#066968"/>
<path d="M74.6522 88.7419C80.2605 91.467 85.856 85.8262 89.9971 77.3038C94.6992 67.6267 95.2598 59.1996 88.8818 56.1004C83.2735 53.3753 77.678 59.0162 73.5369 67.5386C68.8347 77.2156 68.2741 85.6428 74.6522 88.7419ZM91.8516 52.7859C103.783 58.5835 106.135 70.6685 101.165 80.8954C95.0204 93.5416 82.734 97.4265 71.6824 92.0564C59.751 86.2589 57.4544 74.2006 62.4237 63.9737C68.5686 51.3275 80.8549 47.4426 91.8516 52.7859Z" fill="#066968"/>
<path d="M131.559 75.4922L129.796 74.7971L123.54 90.6638L125.246 91.3365C131.445 93.7805 135.263 92.2632 137.438 86.7468C139.411 81.7423 137.303 77.7569 131.559 75.4922ZM116.512 65.1571L136.644 73.0945C147.222 77.2651 150.341 83.6861 147.561 90.738C145.476 96.0269 140.174 98.1419 135.062 97.4406L137.978 110.878C138.735 114.791 139.798 116.261 142.676 117.462L141.263 121.044L129.207 116.291C128.061 114.196 127.335 111.873 126.806 108.379L124.608 95.2901L122.105 94.3035L118.518 103.403C117.284 106.531 117.891 107.492 121.577 109.143L120.164 112.726L100.772 105.08L102.184 101.497C106.062 102.829 107.219 102.562 108.452 99.434L118.273 74.5249C119.506 71.3971 118.843 70.4128 115.055 68.8536L116.512 65.1571Z" fill="#066968"/>
<path d="M181.848 118.074L178.347 116.982C178.856 113.298 178.17 111.803 175.603 111.002L170.176 109.308L166.624 120.687C165.641 123.838 166.979 125.089 170.306 126.127L172.64 126.855C176.958 128.203 179.306 126.63 184.88 121.902L188.732 123.104L183.244 134.327L148.99 123.636L150.137 119.96C154.101 121.005 155.235 120.655 156.237 117.445L164.214 91.8859C165.216 88.6764 164.483 87.7431 160.628 86.3478L161.775 82.6715L195.737 93.2716L192.332 104.184L188.363 102.945C187.99 97.5774 187.259 94.7879 182.591 93.3309L175.822 91.2181L171.414 105.34L176.841 107.034C179.409 107.835 180.823 106.996 182.5 103.677L186.001 104.77L181.848 118.074Z" fill="#066968"/>
<path d="M209.678 141.709C203.735 140.278 198.934 137.236 196.551 134.336L198.346 124.268L203.516 125.513C203.638 132.584 205.794 136.687 211.38 138.032C215.422 139.005 218.673 137.775 219.589 133.971C220.361 130.762 218.772 128.745 212.573 125.241C204.154 120.51 200.764 116.048 202.567 108.559C204.541 100.357 211.805 96.824 220.661 98.9556C226.247 100.3 230.466 102.888 232.923 105.743L230.734 114.836L226.276 113.763C225.888 108.325 224.619 103.932 219.032 102.588C214.99 101.615 212.338 103.491 211.651 106.344C210.764 110.029 212.575 111.911 218.565 115.239C226.834 119.807 230.892 124.368 228.946 132.451C226.786 141.426 218.593 143.855 209.678 141.709Z" fill="#066968"/>
<path d="M260.13 143.336L263.972 115.788C262.45 112.983 261.601 112.433 259.386 111.939L259.918 108.124L275.115 110.244L290.732 137.667L293.072 120.896C293.536 117.566 292.055 116.681 288.145 115.95L288.677 112.136L304.237 114.306L303.705 118.121C299.683 117.745 298.561 118.267 298.097 121.597L293.283 156.108L288.863 155.491L268.433 120.978L265.215 144.045C264.751 147.375 266.111 148.244 270.142 148.991L269.61 152.805L253.99 150.626L254.522 146.812C258.603 147.196 259.665 146.665 260.13 143.336Z" fill="#066968"/>
<path d="M330.992 138.212L338.786 126.395C339.737 124.924 340.355 123.86 340.413 122.945C340.518 121.298 339.275 120.607 336.172 120.287L336.416 116.444L350.386 117.33L350.143 121.173C348.415 121.37 347.416 121.674 346.4 123.202L333.184 143.252L332.685 151.122C332.472 154.477 333.711 155.229 337.787 155.672L337.543 159.515L316.068 158.153L316.312 154.31C320.35 154.382 321.735 153.796 321.947 150.441L322.45 142.51L311.503 120.989C310.689 119.345 309.858 118.925 308.169 118.511L308.413 114.668L328.485 115.941L328.241 119.784C324.878 119.693 323.924 120.246 323.819 121.893C323.754 122.93 324.241 123.941 324.937 125.516L330.992 138.212Z" fill="#066968"/>
<path d="M388.32 151.916L388.133 139.997L371.508 140.257L371.694 152.176C371.747 155.538 372.858 156.193 376.834 156.314L376.894 160.165L355.868 160.494L355.807 156.643C359.9 156.395 360.867 155.708 360.815 152.346L360.396 125.574C360.343 122.212 359.354 121.555 355.256 121.436L355.196 117.585L376.222 117.256L376.283 121.107C372.313 121.352 371.223 122.042 371.275 125.404L371.443 136.1L388.068 135.84L387.901 125.144C387.848 121.782 386.799 121.126 382.762 121.006L382.701 117.155L403.789 116.825L403.849 120.676C399.757 120.923 398.728 121.612 398.781 124.973L399.2 151.745C399.252 155.107 400.302 155.763 404.4 155.882L404.46 159.733L383.373 160.063L383.313 156.212C387.344 155.966 388.373 155.277 388.32 151.916Z" fill="#066968"/>
<path d="M442.722 141.165L439.07 141.509C438.118 137.914 436.908 136.8 434.23 137.052L428.57 137.585L429.687 149.453C429.997 152.74 431.715 153.376 435.184 153.05L437.618 152.82C442.122 152.396 443.681 150.039 446.997 143.525L451.014 143.147L450.285 155.619L414.559 158.983L414.198 155.149C418.258 154.582 419.169 153.821 418.854 150.474L416.344 123.816C416.029 120.469 414.992 119.891 410.897 120.093L410.536 116.258L445.957 112.923L447.029 124.304L442.89 124.694C440.473 119.886 438.722 117.595 433.853 118.054L426.793 118.718L428.18 133.447L433.84 132.914C436.518 132.662 437.499 131.341 437.764 127.632L441.415 127.288L442.722 141.165Z" fill="#066968"/>
<path d="M473.322 112.973L471.213 113.333L476.338 143.342C476.945 146.897 478.384 147.333 481.577 146.788L482.24 146.675C489.471 145.44 492.632 139.257 490.646 127.627C488.917 117.503 482.903 111.337 473.322 112.973ZM455.444 115.778L454.796 111.982L474.139 108.678C489.926 105.982 499.881 112.344 502.022 124.878C504.389 138.737 496.91 148.325 483.291 150.65L462.02 154.283L461.372 150.487C465.378 149.617 466.229 148.789 465.663 145.475L461.156 119.082C460.59 115.768 459.512 115.269 455.444 115.778Z" fill="#066968"/>
<path d="M531.195 141.384C525.258 142.841 519.596 142.342 516.148 140.86L513.121 131.091L518.286 129.823C521.64 136.05 525.439 138.705 531.019 137.335C535.056 136.345 537.38 133.76 536.448 129.96C535.661 126.754 533.323 125.692 526.207 125.424C516.557 125.086 511.496 122.677 509.66 115.197C507.649 107.004 512.481 100.531 521.327 98.3595C526.908 96.9898 531.843 97.352 535.336 98.7607L537.566 107.844L533.113 108.937C530.272 104.284 527.128 100.964 521.547 102.334C517.51 103.325 516.015 106.21 516.714 109.059C517.618 112.74 520.09 113.581 526.939 113.788C536.383 114.051 542.081 116.24 544.063 124.315C546.263 133.279 540.1 139.198 531.195 141.384Z" fill="#066968"/>
<path d="M557.135 134.177L555.965 130.507C559.812 129.089 560.54 128.151 559.519 124.948L551.389 99.4368C550.368 96.2334 549.232 95.8896 545.274 96.9585L544.105 93.2891L565.481 86.4773C574.392 83.6375 580.729 85.4034 582.901 92.2181C584.776 98.1008 580.52 102.665 575.151 105.146C582.755 103.236 589.19 104.906 591.176 111.139C593.533 118.536 589.111 123.987 578.802 127.272L557.135 134.177ZM569.354 109.303L566.267 110.286L569.924 121.761C570.926 124.906 572.507 125.236 575.71 124.215L576.176 124.067C580.486 122.693 582.254 119.179 580.713 114.345C579.265 109.801 575.936 107.205 569.354 109.303ZM562.531 91.716L560.55 92.3471L565.042 106.442L567.314 105.718C572.381 104.104 574.453 100.941 572.819 95.8157C571.39 91.3308 567.773 90.0456 562.531 91.716Z" fill="#066968"/>
<path d="M606.368 76.1335L604.61 76.8417L610.984 92.6614L612.685 91.976C618.865 89.4859 620.593 85.7582 618.377 80.2581C616.366 75.2684 612.095 73.8261 606.368 76.1335ZM588.337 78.9825L608.409 70.8952C618.956 66.646 625.637 69.1607 628.47 76.1917C630.594 81.4649 628.201 86.6473 624.008 89.6546L635.368 97.4021C638.609 99.7211 640.392 100.057 643.307 98.9487L644.746 102.521L632.725 107.364C630.453 106.632 628.327 105.445 625.541 103.273L614.941 95.2851L612.446 96.2902L616.101 105.362C617.358 108.481 618.46 108.762 622.27 107.424L623.71 110.997L604.374 118.787L602.935 115.215C606.666 113.514 607.322 112.525 606.065 109.406L596.059 84.5709C594.802 81.4523 593.644 81.1942 589.822 82.6681L588.337 78.9825Z" fill="#066968"/>
<path d="M672.16 72.4471L668.867 74.0624C666.703 71.0386 665.177 70.4256 662.762 71.6101L657.658 74.1138L662.908 84.8161C664.361 87.7798 666.193 87.7664 669.322 86.2318L671.517 85.155C675.578 83.1628 676.201 80.4063 676.994 73.1401L680.616 71.3633L684.353 83.2843L652.137 99.0872L650.441 95.6295C654.037 93.6611 654.619 92.6267 653.138 89.6081L641.347 65.5692C639.866 62.5506 638.692 62.3776 634.934 64.0167L633.238 60.559L665.18 44.8907L670.214 55.1539L666.482 56.9846C662.518 53.3456 660.069 51.8233 655.679 53.9771L649.312 57.1L655.827 70.3817L660.931 67.878C663.346 66.6935 663.796 65.1112 662.729 61.549L666.022 59.9337L672.16 72.4471Z" fill="#066968"/>
<path d="M708.496 53.2784L705.362 32.3866C705.217 31.4098 704.997 30.5474 704.658 29.9666C703.764 28.4356 702.708 28.2026 699.395 29.9239L697.454 26.5978L709.702 19.4488L711.644 22.7749C710.319 23.9017 709.523 24.7203 709.722 26.5156L714.805 66.5129L712.007 68.1461L677.938 45.066C676.473 44.0103 675.421 44.2702 673.789 44.869L671.848 41.5429L689.745 31.0967L691.687 34.4229C688.559 36.4609 688.106 37.5039 689.03 39.0878C689.369 39.6685 690.012 40.2844 690.791 40.8915L708.496 53.2784Z" fill="#066968"/>
</svg>
