<svg width="1409" height="480" viewBox="0 0 1409 480" fill="none" xmlns="http://www.w3.org/2000/svg">
<path d="M12.412 91.883L46.7395 72.6094L54.4524 84.4737L50.7211 86.5686C44.661 81.7686 42.1219 79.6188 37.8043 82.0429L36.1519 82.9707L51.3254 109.996C52.9714 112.927 54.4733 112.855 58.0811 111.04L59.9666 114.398L41.0971 124.993L39.2117 121.634C42.6932 119.469 43.59 118.195 41.9439 115.263L26.7705 88.238L25.0648 89.1957C20.7472 91.6199 21.2607 94.907 22.2037 102.58L18.5258 104.645L12.412 91.883Z" fill="#066968"/>
<path d="M95.1224 97.7906L75.9207 106.365L74.3505 102.848C78.0156 101.011 78.6345 99.9978 77.2637 96.9277L66.3469 72.4791C64.9761 69.409 63.8089 69.1938 59.9942 70.6963L58.424 67.1797L77.6257 58.6058L79.1959 62.1224C75.5308 63.9598 74.9119 64.9726 76.2827 68.0426L87.1994 92.4912C88.5703 95.5613 89.7375 95.7765 93.5522 94.274L95.1224 97.7906Z" fill="#066968"/>
<path d="M106.437 56.2839L115.148 81.4731C116.227 84.5929 117.758 84.9044 121.108 83.7456L122.899 83.1262C126.828 81.7676 127.211 79.6948 128.962 70.357L133.122 68.9185L135.619 83.0611L102.631 94.4693L101.372 90.8296C105.183 89.3176 105.888 88.3625 104.789 85.1849L96.0378 59.8801C94.9589 56.7604 93.8147 56.4445 89.884 57.6098L88.6053 53.9123L108.479 47.0394L109.758 50.7369C106.063 52.2089 105.358 53.1641 106.437 56.2839Z" fill="#066968"/>
<path d="M183.091 62.3859L175.869 42.2814L171.327 74.3108L167.137 75.1784L149.518 47.6753L151.065 69.0172C151.105 69.5085 151.206 70.299 151.256 70.5385C151.851 73.4118 153.496 73.8203 157.736 73.1921L158.517 76.9633L142.713 80.2356L141.932 76.4643C145.307 75.5782 146.356 74.612 146.205 71.7716L144.497 44.5323C143.84 41.3597 142.552 40.5651 138.504 41.216L137.723 37.4448L153.706 34.1353C154.111 35.4873 154.524 36.2758 155.373 37.6608L169.079 59.2319L172.553 34.1035C172.782 32.4954 172.967 31.583 172.802 30.1814L188.426 26.9463L189.206 30.7175C185.293 31.7152 184.486 32.9435 185.143 36.1162L194.333 61.8062C195.359 64.6526 196.728 64.931 200.117 64.4165L200.898 68.1877L179.408 72.6375L178.627 68.8663C182.828 67.7468 184.116 66.731 183.521 63.8577C183.471 63.6182 183.25 62.8524 183.091 62.3859Z" fill="#066968"/>
<path d="M236.325 50.686L232.667 50.9538C231.79 47.3404 230.603 46.2014 227.921 46.3978L222.251 46.813L223.121 58.7016C223.362 61.9938 225.066 62.6659 228.542 62.4115L230.98 62.2329C235.492 61.9026 237.099 59.5783 240.55 53.1349L244.574 52.8403L243.586 65.2941L207.798 67.9143L207.517 64.0734C211.588 63.5914 212.514 62.8494 212.269 59.4962L210.314 32.7924C210.068 29.4392 209.044 28.84 204.946 28.9562L204.664 25.1152L240.147 22.5173L240.982 33.9182L236.836 34.2217C234.519 29.3652 232.817 27.0381 227.939 27.3953L220.867 27.9131L221.947 42.6672L227.617 42.252C230.3 42.0556 231.308 40.7559 231.65 37.0532L235.308 36.7854L236.325 50.686Z" fill="#066968"/>
<path d="M271.007 30.7451L270.111 57.3829C270 60.6821 271.317 61.5216 274.86 61.6409L276.754 61.7046C280.909 61.8444 282.009 60.0465 286.991 51.9569L291.39 52.1049L288.653 66.2031L253.767 65.029L253.896 61.18C257.996 61.1344 258.996 60.4953 259.109 57.135L260.01 30.375C260.121 27.0758 259.166 26.3708 255.079 26.0498L255.21 22.1396L276.227 22.847L276.096 26.7571C272.118 26.8067 271.118 27.4459 271.007 30.7451Z" fill="#066968"/>
<path d="M321.382 30.9922L319.266 30.6757L314.762 60.7837C314.229 64.3507 315.459 65.2147 318.664 65.6941L319.329 65.7936C326.584 66.8788 331.518 61.9922 333.263 50.3238C334.783 40.1669 330.995 32.4302 321.382 30.9922ZM303.523 28.0734L304.093 24.2645L323.5 27.1677C339.34 29.5372 346.81 38.69 344.928 51.2653C342.848 65.1706 332.749 71.9425 319.086 69.8985L297.744 66.7059L298.314 62.8971C302.391 63.3217 303.458 62.8013 303.956 59.4762L307.917 32.9956C308.414 29.6704 307.547 28.8607 303.523 28.0734Z" fill="#066968"/>
<path d="M396.384 47.9505L394.35 47.2865L384.902 76.2265C383.783 79.6551 384.853 80.7117 387.933 81.7172L388.572 81.9259C395.546 84.2024 401.224 80.2042 404.885 68.9885C408.072 59.2256 405.624 50.9669 396.384 47.9505ZM379.259 42.1026L380.454 38.4415L399.108 44.5312C414.333 49.5016 420.177 59.7691 416.231 71.8565C411.868 85.2223 400.783 90.2207 387.65 85.9332L367.136 79.2365L368.331 75.5754C372.282 76.6721 373.42 76.3364 374.464 73.1402L382.773 47.687C383.816 44.4908 383.095 43.548 379.259 42.1026Z" fill="#066968"/>
<path d="M436.58 105.086L417.319 96.6456L418.865 93.1182C422.69 94.594 423.855 94.3707 425.205 91.2912L435.951 66.7671C437.301 63.6876 436.675 62.6792 432.997 60.8674L434.543 57.3399L453.803 65.7799L452.258 69.3074C448.433 67.8315 447.267 68.0549 445.918 71.1344L435.171 95.6584C433.822 98.7379 434.448 99.7464 438.126 101.558L436.58 105.086Z" fill="#066968"/>
<path d="M454.339 90.3513C461.209 78.0142 474.518 75.35 485.146 81.2687C490.433 84.2132 494.14 88.2367 495.608 92.1332L490.82 100.732L486.334 98.2334C487.955 91.9294 487.42 87.3629 482.933 84.8646C476.257 81.1468 469.602 86.8163 465.348 94.4535C460.144 103.8 459.114 112.183 466.484 116.287C468.3 117.298 469.38 117.62 471.102 117.669L474.998 110.673C476.575 107.842 476.024 106.696 472.665 104.685L474.568 101.267L491.872 110.904L489.969 114.322C486.385 112.466 485.28 112.69 483.704 115.521L479.302 123.425C474.569 124.008 468.669 122.541 463.061 119.419C450.67 112.518 448.36 101.086 454.339 90.3513Z" fill="#066968"/>
<path d="M706.368 361.382L723.018 348.379C723.797 347.772 724.439 347.156 724.778 346.575C725.672 345.044 725.355 344.01 722.227 341.972L724.168 338.646L736.417 345.795L734.476 349.121C732.843 348.522 731.739 348.231 730.274 349.287L697.948 373.384L695.149 371.751L698.49 330.736C698.689 328.941 697.945 328.153 696.621 327.027L698.562 323.7L716.46 334.147L714.519 337.473C711.206 335.751 710.075 335.87 709.151 337.454C708.812 338.035 708.591 338.897 708.446 339.874L706.368 361.382Z" fill="#066968"/>
<path d="M743.652 393.152C749.26 395.877 754.856 390.236 758.997 381.713C763.699 372.036 764.26 363.609 757.882 360.51C752.273 357.785 746.678 363.426 742.537 371.948C737.835 381.625 737.274 390.052 743.652 393.152ZM760.852 357.196C772.783 362.993 775.135 375.078 770.165 385.305C764.02 397.951 751.734 401.836 740.682 396.466C728.751 390.669 726.454 378.61 731.424 368.383C737.569 355.737 749.855 351.852 760.852 357.196Z" fill="#066968"/>
<path d="M800.559 379.902L798.796 379.207L792.54 395.074L794.246 395.746C800.445 398.19 804.263 396.673 806.438 391.156C808.411 386.152 806.302 382.167 800.559 379.902ZM785.512 369.567L805.644 377.504C816.221 381.675 819.341 388.096 816.561 395.148C814.475 400.437 809.173 402.552 804.061 401.85L806.977 415.288C807.734 419.2 808.797 420.671 811.675 421.871L810.263 425.454L798.206 420.701C797.061 418.606 796.334 416.283 795.806 412.789L793.607 399.7L791.105 398.713L787.517 407.812C786.284 410.94 786.89 411.902 790.577 413.553L789.164 417.135L769.771 409.489L771.184 405.907C775.061 407.238 776.218 406.971 777.451 403.844L787.272 378.935C788.505 375.807 787.842 374.822 784.054 373.263L785.512 369.567Z" fill="#066968"/>
<path d="M850.848 422.484L847.347 421.391C847.856 417.708 847.17 416.213 844.603 415.411L839.176 413.718L835.624 425.097C834.641 428.248 835.979 429.498 839.306 430.536L841.64 431.265C845.958 432.613 848.306 431.04 853.88 426.312L857.732 427.514L852.244 438.737L817.99 428.046L819.137 424.37C823.101 425.415 824.235 425.064 825.237 421.855L833.214 396.296C834.216 393.086 833.483 392.153 829.628 390.757L830.775 387.081L864.737 397.681L861.332 408.593L857.363 407.355C856.99 401.987 856.259 399.198 851.591 397.741L844.822 395.628L840.414 409.75L845.841 411.443C848.409 412.245 849.823 411.406 851.5 408.086L855.001 409.179L850.848 422.484Z" fill="#066968"/>
<path d="M878.678 446.119C872.735 444.688 867.934 441.646 865.551 438.746L867.346 428.678L872.516 429.922C872.638 436.994 874.794 441.097 880.38 442.441C884.422 443.414 887.673 442.185 888.589 438.381C889.361 435.172 887.772 433.154 881.573 429.65C873.154 424.92 869.764 420.457 871.567 412.969C873.541 404.767 880.805 401.234 889.661 403.365C895.247 404.71 899.466 407.297 901.923 410.152L899.734 419.246L895.276 418.173C894.888 412.735 893.619 408.342 888.032 406.997C883.99 406.025 881.338 407.901 880.651 410.754C879.764 414.439 881.575 416.321 887.565 419.649C895.834 424.217 899.892 428.778 897.946 436.861C895.786 445.835 887.593 448.265 878.678 446.119Z" fill="#066968"/>
<path d="M929.13 447.745L932.972 420.198C931.45 417.393 930.601 416.842 928.386 416.348L928.918 412.534L944.115 414.654L959.732 442.077L962.072 425.306C962.536 421.976 961.055 421.09 957.145 420.36L957.677 416.546L973.237 418.716L972.705 422.53C968.683 422.155 967.561 422.677 967.097 426.007L962.283 460.517L957.863 459.901L937.433 425.387L934.215 448.455C933.751 451.785 935.111 452.653 939.142 453.401L938.61 457.215L922.99 455.036L923.522 451.222C927.603 451.606 928.665 451.075 929.13 447.745Z" fill="#066968"/>
<path d="M999.992 442.622L1007.79 430.804C1008.74 429.333 1009.36 428.27 1009.41 427.355C1009.52 425.708 1008.28 425.016 1005.17 424.697L1005.42 420.853L1019.39 421.74L1019.14 425.583C1017.42 425.78 1016.42 426.084 1015.4 427.612L1002.18 447.661L1001.68 455.531C1001.47 458.887 1002.71 459.639 1006.79 460.081L1006.54 463.925L985.068 462.563L985.312 458.719C989.35 458.792 990.735 458.206 990.947 454.85L991.45 446.919L980.503 425.399C979.689 423.755 978.858 423.334 977.169 422.921L977.413 419.077L997.485 420.35L997.241 424.194C993.878 424.103 992.924 424.655 992.819 426.302C992.754 427.34 993.241 428.35 993.937 429.926L999.992 442.622Z" fill="#066968"/>
<path d="M1057.32 456.325L1057.13 444.406L1040.51 444.666L1040.69 456.585C1040.75 459.947 1041.86 460.602 1045.83 460.723L1045.89 464.574L1024.87 464.903L1024.81 461.052C1028.9 460.805 1029.87 460.117 1029.81 456.755L1029.4 429.984C1029.34 426.622 1028.35 425.965 1024.26 425.845L1024.2 421.995L1045.22 421.666L1045.28 425.516C1041.31 425.762 1040.22 426.451 1040.28 429.813L1040.44 440.51L1057.07 440.25L1056.9 429.553C1056.85 426.191 1055.8 425.535 1051.76 425.415L1051.7 421.564L1072.79 421.234L1072.85 425.085C1068.76 425.332 1067.73 426.021 1067.78 429.383L1068.2 456.155C1068.25 459.516 1069.3 460.173 1073.4 460.292L1073.46 464.143L1052.37 464.473L1052.31 460.622C1056.34 460.375 1057.37 459.687 1057.32 456.325Z" fill="#066968"/>
<path d="M1111.72 445.575L1108.07 445.918C1107.12 442.324 1105.91 441.21 1103.23 441.462L1097.57 441.995L1098.69 453.863C1099 457.15 1100.71 457.786 1104.18 457.459L1106.62 457.23C1111.12 456.806 1112.68 454.449 1116 447.935L1120.01 447.557L1119.28 460.028L1083.56 463.393L1083.2 459.558C1087.26 458.992 1088.17 458.231 1087.85 454.883L1085.34 428.226C1085.03 424.879 1083.99 424.301 1079.9 424.502L1079.54 420.668L1114.96 417.332L1116.03 428.714L1111.89 429.103C1109.47 424.296 1107.72 422.005 1102.85 422.463L1095.79 423.128L1097.18 437.857L1102.84 437.324C1105.52 437.071 1106.5 435.751 1106.76 432.042L1110.42 431.698L1111.72 445.575Z" fill="#066968"/>
<path d="M1142.32 417.382L1140.21 417.743L1145.34 447.751C1145.94 451.306 1147.38 451.743 1150.58 451.197L1151.24 451.084C1158.47 449.849 1161.63 443.666 1159.65 432.036C1157.92 421.913 1151.9 415.746 1142.32 417.382ZM1124.44 420.188L1123.8 416.391L1143.14 413.088C1158.93 410.392 1168.88 416.754 1171.02 429.287C1173.39 443.147 1165.91 452.734 1152.29 455.06L1131.02 458.692L1130.37 454.896C1134.38 454.026 1135.23 453.198 1134.66 449.884L1130.16 423.491C1129.59 420.177 1128.51 419.679 1124.44 420.188Z" fill="#066968"/>
<path d="M1200.19 445.794C1194.26 447.251 1188.6 446.752 1185.15 445.269L1182.12 435.5L1187.29 434.233C1190.64 440.459 1194.44 443.115 1200.02 441.745C1204.06 440.754 1206.38 438.17 1205.45 434.37C1204.66 431.164 1202.32 430.101 1195.21 429.834C1185.56 429.496 1180.5 427.087 1178.66 419.606C1176.65 411.414 1181.48 404.94 1190.33 402.769C1195.91 401.399 1200.84 401.762 1204.34 403.17L1206.57 412.254L1202.11 413.347C1199.27 408.694 1196.13 405.374 1190.55 406.744C1186.51 407.734 1185.02 410.619 1185.71 413.469C1186.62 417.15 1189.09 417.991 1195.94 418.198C1205.38 418.461 1211.08 420.65 1213.06 428.724C1215.26 437.689 1209.1 443.608 1200.19 445.794Z" fill="#066968"/>
<path d="M1226.13 438.587L1224.97 434.917C1228.81 433.499 1229.54 432.561 1228.52 429.358L1220.39 403.846C1219.37 400.643 1218.23 400.299 1214.27 401.368L1213.1 397.699L1234.48 390.887C1243.39 388.047 1249.73 389.813 1251.9 396.628C1253.78 402.51 1249.52 407.075 1244.15 409.555C1251.75 407.646 1258.19 409.316 1260.18 415.548C1262.53 422.945 1258.11 428.397 1247.8 431.682L1226.13 438.587ZM1238.35 413.712L1235.27 414.696L1238.92 426.17C1239.93 429.316 1241.51 429.646 1244.71 428.625L1245.18 428.477C1249.49 427.103 1251.25 423.589 1249.71 418.754C1248.27 414.211 1244.94 411.615 1238.35 413.712ZM1231.53 396.126L1229.55 396.757L1234.04 410.852L1236.31 410.128C1241.38 408.513 1243.45 405.351 1241.82 400.225C1240.39 395.74 1236.77 394.455 1231.53 396.126Z" fill="#066968"/>
<path d="M1275.37 380.543L1273.61 381.251L1279.98 397.071L1281.68 396.386C1287.87 393.896 1289.59 390.168 1287.38 384.668C1285.37 379.678 1281.09 378.236 1275.37 380.543ZM1257.34 383.392L1277.41 375.305C1287.96 371.056 1294.64 373.57 1297.47 380.601C1299.59 385.875 1297.2 391.057 1293.01 394.064L1304.37 401.812C1307.61 404.131 1309.39 404.467 1312.31 403.358L1313.75 406.931L1301.73 411.774C1299.45 411.042 1297.33 409.855 1294.54 407.682L1283.94 399.695L1281.45 400.7L1285.1 409.772C1286.36 412.891 1287.46 413.172 1291.27 411.834L1292.71 415.406L1273.37 423.197L1271.94 419.624C1275.67 417.924 1276.32 416.934 1275.07 413.816L1265.06 388.981C1263.8 385.862 1262.64 385.604 1258.82 387.078L1257.34 383.392Z" fill="#066968"/>
<path d="M1341.16 376.857L1337.87 378.472C1335.7 375.448 1334.18 374.835 1331.76 376.02L1326.66 378.523L1331.91 389.226C1333.36 392.189 1335.19 392.176 1338.32 390.642L1340.52 389.565C1344.58 387.572 1345.2 384.816 1345.99 377.55L1349.62 375.773L1353.35 387.694L1321.14 403.497L1319.44 400.039C1323.04 398.071 1323.62 397.036 1322.14 394.018L1310.35 369.979C1308.87 366.96 1307.69 366.787 1303.93 368.426L1302.24 364.969L1334.18 349.3L1339.21 359.564L1335.48 361.394C1331.52 357.755 1329.07 356.233 1324.68 358.387L1318.31 361.51L1324.83 374.791L1329.93 372.288C1332.35 371.103 1332.8 369.521 1331.73 365.959L1335.02 364.343L1341.16 376.857Z" fill="#066968"/>
<path d="M1377.5 357.688L1374.36 336.796C1374.22 335.819 1374 334.957 1373.66 334.376C1372.76 332.845 1371.71 332.612 1368.39 334.334L1366.45 331.007L1378.7 323.858L1380.64 327.185C1379.32 328.311 1378.52 329.13 1378.72 330.925L1383.8 370.923L1381.01 372.556L1346.94 349.476C1345.47 348.42 1344.42 348.68 1342.79 349.279L1340.85 345.953L1358.75 335.506L1360.69 338.833C1357.56 340.871 1357.11 341.914 1358.03 343.497C1358.37 344.078 1359.01 344.694 1359.79 345.301L1377.5 357.688Z" fill="#066968"/>
</svg>
